<svg width="360" height="370" viewBox="0 0 360 370" fill="none" xmlns="http://www.w3.org/2000/svg">
<g clip-path="url(#clip0_50_3171)">
<path opacity="0.1" d="M213 467C330.637 467 426.001 371.71 426.001 254.163C426.001 136.616 330.637 41.3259 213 41.3259C95.3635 41.3259 0 136.616 0 254.163C0 371.71 95.3635 467 213 467Z" fill="#959595"/>
<path d="M142.645 120.47C142.526 120.47 142.41 120.437 142.308 120.375C142.207 120.313 142.124 120.224 142.07 120.119C142.015 120.013 141.991 119.895 141.999 119.776C142.008 119.658 142.048 119.544 142.117 119.447C142.236 119.277 153.963 102.338 140.873 86.8969C138.556 84.1489 135.665 81.9407 132.404 80.427C129.142 78.9132 125.589 78.1306 121.993 78.1339H121.82C123.063 82.4489 122.842 86.2855 121.081 89.2288C120.331 90.5588 119.224 91.6531 117.885 92.3885C116.546 93.1238 115.029 93.471 113.503 93.3908C112.24 93.2875 111.035 92.8183 110.035 92.0409C109.035 91.2634 108.283 90.2113 107.873 89.0135C106.433 85.2612 107.938 81.623 111.902 79.2782C114.414 77.8939 117.206 77.0919 120.07 76.9313C119.138 74.4627 117.927 72.1087 116.459 69.9155C111.733 62.7027 103.118 57.7102 92.8247 56.2172C84.1018 54.9517 75.7415 56.4415 71.5237 60.011C71.3924 60.1221 71.2223 60.1766 71.0508 60.1624C70.8793 60.1483 70.7205 60.0666 70.6093 59.9354C70.498 59.8042 70.4435 59.6343 70.4577 59.4629C70.4718 59.2915 70.5535 59.1328 70.6848 59.0217C75.1738 55.2227 83.937 53.6169 93.0109 54.9342C103.673 56.4804 112.615 61.6822 117.545 69.2057C119.144 71.5914 120.444 74.1637 121.417 76.8652C125.296 76.7721 129.146 77.5497 132.684 79.1407C136.222 80.7316 139.357 83.0955 141.859 86.058C155.61 102.278 143.298 120.019 143.173 120.196C143.113 120.281 143.034 120.349 142.942 120.397C142.85 120.445 142.749 120.47 142.645 120.47ZM120.491 78.1838C117.714 78.3014 115.001 79.0579 112.565 80.3945C109.142 82.4191 107.874 85.3915 109.085 88.55C109.413 89.5179 110.017 90.3692 110.821 90.9997C111.626 91.6302 112.598 92.0126 113.616 92.1C114.899 92.1574 116.173 91.8571 117.295 91.2326C118.416 90.6082 119.342 89.6843 119.969 88.5643C121.587 85.8609 121.735 82.2681 120.491 78.1838Z" fill="#292A2E"/>
<path d="M60.3276 70.4692C59.2263 70.7988 58.0396 70.6859 57.0204 70.1543C56.0012 69.6228 55.2299 68.7147 54.8707 67.6234C54.5116 66.5321 54.5929 65.3438 55.0975 64.3115C55.602 63.2793 56.4899 62.4846 57.5721 62.0967C58.6542 61.7088 59.8452 61.7584 60.8913 62.2348C61.9375 62.7112 62.7562 63.5769 63.1731 64.6475C63.59 65.7181 63.5722 66.9091 63.1235 67.9667C62.6748 69.0244 61.8306 69.8653 60.7707 70.3104C60.6259 70.3711 60.478 70.4241 60.3276 70.4692ZM58.1704 63.2621C58.0652 63.2941 57.9617 63.3313 57.8602 63.3736C57.113 63.6879 56.518 64.2814 56.2021 65.0275C55.8861 65.7737 55.8742 66.6136 56.1689 67.3684C56.4635 68.1231 57.0414 68.7332 57.7795 69.0685C58.5176 69.4039 59.3575 69.438 60.1204 69.1637C60.8833 68.8894 61.5089 68.3283 61.864 67.5999C62.219 66.8715 62.2754 66.0334 62.0212 65.2641C61.767 64.4948 61.2223 63.855 60.503 63.4811C59.7837 63.1072 58.9468 63.0286 58.1704 63.2621Z" fill="#292A2E"/>
<path d="M60.3191 60.3053C59.2762 60.6162 58.1551 60.531 57.1712 60.066C56.1874 59.6009 55.4103 58.7889 54.9894 57.786C54.6517 56.982 54.5603 56.096 54.7267 55.24C54.893 54.3841 55.3096 53.5967 55.9239 52.9773C56.5381 52.358 57.3223 51.9346 58.1774 51.7606C59.0324 51.5867 59.9199 51.67 60.7276 52.0001C61.5353 52.3302 62.2268 52.8921 62.7148 53.615C63.2028 54.3378 63.4654 55.189 63.4692 56.0609C63.4731 56.9329 63.2181 57.7863 62.7365 58.5135C62.2549 59.2406 61.5683 59.8086 60.7636 60.1458C60.6182 60.2065 60.4699 60.2597 60.3191 60.3053ZM58.1645 53.1002C58.0584 53.1321 57.954 53.1695 57.8518 53.2123C57.0906 53.5317 56.4874 54.14 56.1748 54.9035C55.8623 55.6671 55.866 56.5234 56.1851 57.2842C56.4178 57.8388 56.8064 58.3141 57.3038 58.6527C57.8012 58.9912 58.3861 59.1785 58.9877 59.1918C59.5894 59.2052 60.1821 59.0441 60.694 58.728C61.206 58.4118 61.6153 57.9543 61.8725 57.4106C62.1296 56.8669 62.2236 56.2604 62.1431 55.6644C62.0626 55.0685 61.811 54.5086 61.4187 54.0526C61.0264 53.5965 60.5103 53.2638 59.9328 53.0946C59.3553 52.9255 58.7411 52.9272 58.1645 53.0995V53.1002Z" fill="#292A2E"/>
<path d="M59.0605 64.89C62.2466 64.89 64.8295 63.1662 64.8295 61.0398C64.8295 58.9134 62.2466 57.1896 59.0605 57.1896C55.8743 57.1896 53.2914 58.9134 53.2914 61.0398C53.2914 63.1662 55.8743 64.89 59.0605 64.89Z" fill="white"/>
<path d="M61.6121 65.1726C60.7851 65.4173 59.9269 65.5404 59.0644 65.5383C55.4655 65.5383 52.6446 63.5675 52.6414 61.045C52.6381 58.5225 55.4571 56.5446 59.0553 56.5413C60.624 56.5113 62.1674 56.9394 63.4962 57.7731C64.0928 58.0838 64.5928 58.552 64.9419 59.1267C65.291 59.7015 65.4758 60.3607 65.4764 61.033C65.4769 61.7053 65.2931 62.3649 64.9449 62.9402C64.5968 63.5155 64.0975 63.9844 63.5014 64.2962C62.9186 64.6803 62.2819 64.9756 61.6121 65.1726ZM56.9026 58.1517C55.169 58.6703 53.9396 59.7892 53.9409 61.0469C53.9409 62.7831 56.2875 64.2469 59.0631 64.2449C60.3756 64.2725 61.6676 63.9172 62.7813 63.2226C63.1991 63.0303 63.5529 62.7223 63.8008 62.3351C64.0487 61.948 64.1802 61.4979 64.1798 61.0382C64.1794 60.5786 64.0471 60.1287 63.7985 59.742C63.5499 59.3553 63.1955 59.0479 62.7774 58.8564C61.6626 58.164 60.3701 57.8112 59.0579 57.8411C58.3282 57.8397 57.6022 57.9443 56.9026 58.1517Z" fill="#292A2E"/>
<path d="M60.4755 64.772L60.3392 57.2849L58.4759 57.209L58.3455 64.8595L60.4755 64.772Z" fill="#292A2E"/>
<path d="M51.4067 62.6683C51.7357 62.6683 52.0023 62.4019 52.0023 62.0732C52.0023 61.7445 51.7357 61.478 51.4067 61.478C51.0778 61.478 50.8112 61.7445 50.8112 62.0732C50.8112 62.4019 51.0778 62.6683 51.4067 62.6683Z" fill="#292A2E"/>
<path d="M51.8719 59.4839C52.2008 59.4839 52.4675 59.2174 52.4675 58.8888C52.4675 58.5601 52.2008 58.2936 51.8719 58.2936C51.543 58.2936 51.2763 58.5601 51.2763 58.8888C51.2763 59.2174 51.543 59.4839 51.8719 59.4839Z" fill="#292A2E"/>
<path d="M249.553 86.0709C249.414 86.0709 249.279 86.0264 249.167 85.9439C249.056 85.8614 248.973 85.7453 248.933 85.6126C246.78 77.5827 246.206 69.2121 247.242 60.9639C248.919 48.9057 255.574 33.0803 277.755 26.1507C280.875 25.148 284.077 24.4147 287.323 23.9589C288.367 17.439 292.344 10.3603 301.232 5.4787C322.359 -6.12051 336.629 4.2865 336.77 4.39282C336.908 4.49598 336.999 4.64956 337.023 4.81977C337.048 4.98998 337.003 5.16287 336.9 5.30042C336.797 5.43797 336.643 5.52891 336.473 5.55322C336.302 5.57754 336.129 5.53324 335.992 5.43008C335.857 5.32895 322.219 -4.56461 301.858 6.6158C293.55 11.1778 289.746 17.7256 288.665 23.8039C298.448 22.8412 303.133 26.1021 305.235 28.565C306.537 30.0458 307.373 31.8765 307.641 33.8291C307.909 35.7817 307.595 37.7699 306.74 39.5457C306.063 40.9804 304.967 42.1765 303.596 42.9761C302.226 43.7757 300.644 44.1414 299.061 44.0248C293.598 43.7045 289.077 39.112 287.544 32.3244C287.038 30.0268 286.904 27.663 287.146 25.3229C284.092 25.7612 281.081 26.4532 278.143 27.3916C260.856 32.7925 250.893 44.1499 248.527 61.1461C247.512 69.2071 248.072 77.3882 250.173 85.2366C250.203 85.3335 250.21 85.4361 250.192 85.536C250.175 85.6359 250.135 85.7304 250.075 85.8119C250.014 85.8935 249.936 85.9597 249.845 86.0054C249.755 86.051 249.654 86.0748 249.553 86.0748V86.0709ZM288.469 25.1608C288.198 27.4564 288.314 29.7809 288.81 32.0385C290.212 38.2478 294.266 42.4442 299.137 42.7301C300.465 42.8251 301.791 42.5169 302.94 41.8459C304.09 41.1749 305.009 40.1725 305.578 38.97C306.32 37.4217 306.589 35.6897 306.353 33.9896C306.116 32.2895 305.385 30.6964 304.25 29.4084C301.216 25.8512 295.68 24.4146 288.469 25.1608Z" fill="#292A2E"/>
<path d="M351.886 10.9457C351.012 10.944 350.156 10.6954 349.418 10.2286C348.679 9.76185 348.088 9.09589 347.712 8.30763C347.336 7.51937 347.191 6.64095 347.293 5.77375C347.395 4.90655 347.741 4.08593 348.29 3.4066C348.839 2.72727 349.569 2.21693 350.396 1.93448C351.223 1.65203 352.113 1.60898 352.963 1.81031C353.813 2.01164 354.589 2.44914 355.202 3.07231C355.814 3.69548 356.237 4.47891 356.423 5.33219C356.568 6.00851 356.56 6.70877 356.4 7.38169C356.239 8.05461 355.93 8.68316 355.495 9.22133C355.06 9.75949 354.511 10.1937 353.886 10.492C353.261 10.7904 352.578 10.9454 351.886 10.9457ZM351.895 2.98213C351.205 2.98198 350.532 3.19572 349.969 3.59389C349.405 3.99205 348.979 4.55504 348.75 5.20525C348.52 5.85546 348.498 6.56089 348.686 7.22429C348.874 7.88769 349.264 8.47641 349.801 8.90929C350.338 9.34218 350.996 9.59792 351.685 9.64127C352.374 9.68461 353.059 9.51343 353.646 9.15132C354.234 8.78921 354.694 8.25399 354.964 7.61944C355.234 6.98489 355.301 6.28224 355.154 5.60836C354.997 4.86229 354.587 4.19334 353.993 3.71475C353.4 3.23616 352.658 2.97735 351.895 2.98213Z" fill="#292A2E"/>
<path d="M349.932 21.5265C348.742 21.5262 347.599 21.0705 346.736 20.253C345.873 19.4356 345.356 18.3187 345.293 17.1322C345.229 15.9457 345.623 14.78 346.393 13.875C347.164 12.97 348.252 12.3945 349.434 12.2671C350.617 12.1397 351.803 12.4701 352.748 13.1901C353.694 13.9102 354.328 14.9652 354.519 16.138C354.71 17.3107 354.443 18.512 353.775 19.4945C353.106 20.477 352.086 21.1659 350.924 21.4195C350.598 21.4906 350.265 21.5265 349.932 21.5265ZM349.948 13.5622C349.708 13.5624 349.469 13.5882 349.235 13.6394C348.406 13.8213 347.678 14.3136 347.202 15.0151C346.725 15.7167 346.536 16.574 346.673 17.4108C346.81 18.2475 347.262 19 347.938 19.5135C348.613 20.027 349.459 20.2623 350.303 20.1711C351.146 20.0799 351.923 19.6691 352.473 19.0233C353.022 18.3774 353.303 17.5456 353.258 16.6989C353.213 15.8523 352.844 15.0552 352.229 14.4718C351.613 13.8883 350.797 13.5628 349.948 13.5622Z" fill="#292A2E"/>
<path d="M356.899 12.8401C357.308 10.6257 354.95 8.33472 351.632 7.72295C348.314 7.11118 345.293 8.41032 344.884 10.6247C344.475 12.839 346.834 15.13 350.151 15.7418C353.469 16.3535 356.491 15.0544 356.899 12.8401Z" fill="white"/>
<path d="M351.788 16.5418C351.201 16.5408 350.614 16.4866 350.037 16.3797C348.405 16.1092 346.888 15.3689 345.671 14.2494C345.138 13.7954 344.729 13.2145 344.48 12.5604C344.232 11.9064 344.153 11.2003 344.249 10.5075C344.407 9.82576 344.733 9.19457 345.199 8.67223C345.664 8.14988 346.254 7.75322 346.914 7.51887C348.457 6.93618 350.131 6.7863 351.754 7.08545C353.376 7.3846 354.886 8.12138 356.12 9.2161C356.652 9.67015 357.062 10.251 357.31 10.9051C357.559 11.5591 357.638 12.2652 357.541 12.958C357.384 13.6398 357.058 14.271 356.592 14.7933C356.126 15.3156 355.536 15.7123 354.877 15.9467C353.898 16.3514 352.847 16.5538 351.788 16.5418ZM349.996 8.21903C349.115 8.20783 348.241 8.37476 347.427 8.70978C346.965 8.86405 346.55 9.13072 346.218 9.48569C345.886 9.84066 345.648 10.2727 345.525 10.7428C345.471 11.2258 345.539 11.7145 345.723 12.1645C345.906 12.6145 346.199 13.0116 346.575 13.3198C347.625 14.235 348.901 14.8513 350.271 15.1039C351.641 15.3566 353.054 15.2363 354.361 14.7557C354.822 14.6015 355.237 14.3349 355.569 13.9799C355.901 13.6249 356.139 13.1928 356.262 12.7227C356.315 12.2398 356.247 11.7512 356.063 11.3012C355.88 10.8513 355.587 10.4541 355.211 10.1457C354.179 9.20428 352.893 8.58407 351.513 8.361C351.013 8.2679 350.505 8.22038 349.996 8.21903Z" fill="#292A2E"/>
<path d="M350.143 7.57333L348.838 15.3956L350.763 15.8338L352.378 7.89293L350.143 7.57333Z" fill="#292A2E"/>
<path d="M357.964 15.9888C358.312 15.9888 358.595 15.7067 358.595 15.3586C358.595 15.0106 358.312 14.7285 357.964 14.7285C357.616 14.7285 357.334 15.0106 357.334 15.3586C357.334 15.7067 357.616 15.9888 357.964 15.9888Z" fill="#292A2E"/>
<path d="M359.063 12.7629C359.411 12.7629 359.694 12.4808 359.694 12.1328C359.694 11.7847 359.411 11.5026 359.063 11.5026C358.715 11.5026 358.433 11.7847 358.433 12.1328C358.433 12.4808 358.715 12.7629 359.063 12.7629Z" fill="#292A2E"/>
<path d="M360.375 129.853V371.989C360.375 374.752 359.277 377.402 357.322 379.355C355.366 381.309 352.715 382.407 349.95 382.407H43.6109C40.8459 382.407 38.1942 381.309 36.2391 379.355C34.2839 377.402 33.1855 374.752 33.1855 371.989V177.126C33.1857 174.363 34.2842 171.714 36.2393 169.76C38.1944 167.806 40.846 166.709 43.6109 166.709H227.359C230.124 166.709 232.775 165.611 234.731 163.657C236.686 161.704 237.784 159.054 237.784 156.291V129.853C237.784 127.09 238.882 124.44 240.838 122.486C242.793 120.533 245.444 119.435 248.209 119.435H349.95C352.715 119.435 355.366 120.533 357.322 122.486C359.277 124.44 360.375 127.09 360.375 129.853Z" fill="#292A2E"/>
<path d="M349.95 383.054H43.6116C40.6756 383.051 37.8607 381.884 35.7845 379.81C33.7084 377.735 32.5403 374.923 32.5367 371.989V177.126C32.5403 174.192 33.7084 171.38 35.7845 169.305C37.8607 167.231 40.6756 166.064 43.6116 166.061H227.359C229.951 166.058 232.436 165.028 234.269 163.196C236.102 161.364 237.133 158.881 237.136 156.291V129.853C237.139 126.919 238.307 124.106 240.383 122.032C242.459 119.957 245.274 118.79 248.209 118.787H349.95C352.886 118.79 355.701 119.957 357.777 122.032C359.853 124.106 361.021 126.919 361.024 129.853V371.989C361.021 374.923 359.853 377.735 357.777 379.81C355.7 381.884 352.886 383.051 349.95 383.054ZM43.6116 167.358C41.0195 167.36 38.5345 168.39 36.7015 170.222C34.8685 172.053 33.8374 174.536 33.8343 177.126V371.989C33.8372 374.579 34.8683 377.062 36.7013 378.894C38.5342 380.725 41.0194 381.755 43.6116 381.758H349.95C352.542 381.755 355.027 380.725 356.86 378.894C358.692 377.062 359.723 374.579 359.726 371.989V129.853C359.723 127.263 358.692 124.779 356.86 122.948C355.027 121.117 352.542 120.086 349.95 120.084H248.209C245.618 120.087 243.133 121.117 241.3 122.948C239.467 124.78 238.436 127.263 238.434 129.853V156.289C238.43 159.223 237.262 162.036 235.186 164.11C233.11 166.185 230.295 167.352 227.359 167.356L43.6116 167.358Z" fill="#262626"/>
<path d="M379.839 129.853V371.989C379.839 374.752 378.74 377.402 376.785 379.355C374.83 381.309 372.178 382.407 369.413 382.407H63.0745C60.3096 382.407 57.6578 381.309 55.7027 379.355C53.7476 377.402 52.6492 374.752 52.6492 371.989V177.126C52.6493 174.363 53.7478 171.714 55.7029 169.76C57.658 167.806 60.3096 166.709 63.0745 166.709H246.822C249.587 166.709 252.239 165.611 254.194 163.657C256.149 161.704 257.248 159.054 257.248 156.291V129.853C257.248 127.09 258.346 124.44 260.301 122.486C262.256 120.533 264.908 119.435 267.673 119.435H369.413C372.178 119.435 374.83 120.533 376.785 122.486C378.74 124.44 379.839 127.09 379.839 129.853Z" fill="white"/>
<path d="M369.413 383.054H63.0752C60.1392 383.051 57.3243 381.884 55.2482 379.81C53.172 377.735 52.004 374.923 52.0004 371.989V177.126C52.004 174.192 53.172 171.38 55.2482 169.305C57.3243 167.231 60.1392 166.064 63.0752 166.061H246.823C249.415 166.058 251.9 165.028 253.733 163.196C255.566 161.364 256.597 158.881 256.6 156.291V129.853C256.603 126.919 257.77 124.106 259.846 122.032C261.922 119.957 264.737 118.79 267.673 118.787H369.413C372.349 118.79 375.164 119.957 377.24 122.032C379.316 124.106 380.484 126.919 380.488 129.853V371.989C380.484 374.923 379.316 377.735 377.24 379.81C375.164 381.884 372.349 383.051 369.413 383.054ZM63.0752 167.358C60.4832 167.36 57.9981 168.39 56.1651 170.222C54.3322 172.053 53.301 174.536 53.2979 177.126V371.989C53.3009 374.579 54.3319 377.062 56.1649 378.894C57.9979 380.725 60.483 381.755 63.0752 381.758H369.413C372.005 381.755 374.49 380.725 376.323 378.894C378.156 377.062 379.187 374.579 379.19 371.989V129.853C379.187 127.263 378.156 124.779 376.323 122.948C374.49 121.117 372.005 120.086 369.413 120.084H267.673C265.081 120.087 262.596 121.117 260.764 122.948C258.931 124.78 257.9 127.263 257.897 129.853V156.289C257.894 159.223 256.726 162.036 254.65 164.11C252.574 166.185 249.759 167.352 246.823 167.356L63.0752 167.358Z" fill="#262626"/>
<path d="M191.526 252.006C195.508 252.006 198.735 248.781 198.735 244.802C198.735 240.824 195.508 237.598 191.526 237.598C187.544 237.598 184.317 240.824 184.317 244.802C184.317 248.781 187.544 252.006 191.526 252.006Z" fill="#292A2E"/>
<path d="M240.962 252.006C244.943 252.006 248.171 248.781 248.171 244.802C248.171 240.824 244.943 237.598 240.962 237.598C236.98 237.598 233.752 240.824 233.752 244.802C233.752 248.781 236.98 252.006 240.962 252.006Z" fill="#292A2E"/>
<path d="M225.91 263.596H206.578V264.893H225.91V263.596Z" fill="#262626"/>
<g opacity="0.1">
<path opacity="0.1" d="M184.089 265.409C187.641 265.409 190.52 263.895 190.52 262.027C190.52 260.159 187.641 258.645 184.089 258.645C180.537 258.645 177.658 260.159 177.658 262.027C177.658 263.895 180.537 265.409 184.089 265.409Z" fill="#367CFF"/>
<path opacity="0.1" d="M248.4 265.409C251.951 265.409 254.831 263.895 254.831 262.027C254.831 260.159 251.951 258.645 248.4 258.645C244.848 258.645 241.968 260.159 241.968 262.027C241.968 263.895 244.848 265.409 248.4 265.409Z" fill="#367CFF"/>
</g>
</g>
<defs>
<clipPath id="clip0_50_3171">
<rect width="426" height="467" fill="white"/>
</clipPath>
</defs>
</svg>
